# xmcd CD database file
# Copyright (C) 1993-1996 Ti Kan
#
# Track frame offsets:
#  150
#  13344
#  21838
#  29078
#  40799
#  49611
#  66517
#  79032
#  85699
#  98504
#  116013
#  127463
#  142056
#  153260
#  165611
#  172140
#  183272
#  205205
#  216321
#  223214
#  231793
#  243411
#  252522
#  259742
#  276971
#
# Disc length: 3816 seconds
#
# Revision: 1
# Processed by: cddbd v1.5.1PL0 Copyright (c) Steve Scherf et al.
# Submitted via: Advanced CD Ripper Pro 2.0
#
DISCID=7b0ee619
DTITLE=Fantasy Fiddlers - Off The Cuff
DYEAR=2003
DGENRE=Misc
TTITLE0=The Frost is all Over Smas the Window Devis Dream Medley
TTITLE1=Rocking Chair Jig
TTITLE2=Foxey Donna
TTITLE3=Black Velvet Waltz
TTITLE4=Flop eared Mule-Chicken Reel-Turkey in the Straw- Medley
TTITLE5=Ashoken Farewell
TTITLE6=100 Pipers-Bonnie Dundee-The Flowers of Edinburgh-Medley
TTITLE7=Maple Sugar
TTITLE8=Londonderry Air
TTITLE9=Bounty Breakdown-Butchard Gardens Breakdown-Allison's Reel-Medley
TTITLE10=Country Waltz
TTITLE11=Billy Wilson's Clog-Cadeau's Jig-The Girl I Left Behind Me-Bowling the Strings-medley
TTITLE12=Tiger Hills Twostep-Dagnais Special-Medley
TTITLE13=Joys of Wedlock-On the Road to Boston-Medley
TTITLE14=Swamp Lake Breakdown
TTITLE15=Tennessee Waltz
TTITLE16=If you Knew Suzie-Barbra Polka-The Hop Polka-Medley
TTITLE17=Amazing Grace
TTITLE18=Stirling Castle
TTITLE19=Swollowtail Jig
TTITLE20=Blue Bells of Scotland
TTITLE21=Memory Lane Waltz
TTITLE22=Clarinet Polka
TTITLE23=Bonnie Bell Schottische-To the Ladies-Haste to the Wedding-St Anne's Reel-Medley
TTITLE24=Whiskey Before Breakfast
EXTD=
EXTT0=
EXTT1=
EXTT2=
EXTT3=
EXTT4=
EXTT5=
EXTT6=
EXTT7=
EXTT8=
EXTT9=
EXTT10=
EXTT11=
EXTT12=
EXTT13=
EXTT14=
EXTT15=
EXTT16=
EXTT17=
EXTT18=
EXTT19=
EXTT20=
EXTT21=
EXTT22=
EXTT23=
EXTT24=
PLAYORDER=
